# xmcd CD database file
# Copyright (C) 1997 Ti Kan
# 
# Track frame offsets:
#     150
#     13143
#     24648
#     38055
#     51733
#     64800
#     75593
#     87560
#     100515
#     113318
#     125183
#     138865
#     150905
#     162513
#     175653
#     189153
#     200595
#     212703
#     224108
#     235458
# 
# Disc length: 3298 seconds
# 
# Revision: 2
# Processed by: cddbd v1.4b41PL1 Copyright (c) Steve Scherf et al.
# Submitted via: DiscPlay 4.0.3
# 
DISCID=180ce014
DTITLE=Robert Johnson - Charly Blues Masterworks Vol.13 Disk 1
DYEAR=1900
DGENRE=
TTITLE0=Kindhearted Woman Blues
TTITLE1=Kindhearted Woman Blues
TTITLE2=I Believe I'll Dust My Broom
TTITLE3=Sweet Home Chicago
TTITLE4=Rambling On My Mind
TTITLE5=Rambling On My Mind
TTITLE6=When You Got A Good Friend
TTITLE7=When You Got A Good Friend
TTITLE8=Come On In My Kitchen
TTITLE9=Come On In My Kitchen
TTITLE10=Terraplane Blues
TTITLE11=Phonograph Blues
TTITLE12=Phonograph Blues
TTITLE13=32-20 Blues
TTITLE14=They're Red Hot
TTITLE15=Dead Shrimp Blues
TTITLE16=Cross Road Blues
TTITLE17=Cross Road Blues
TTITLE18=Walking Blues
TTITLE19=Last Fair Deal Gone Down
EXTD=
EXTT0=
EXTT1=
EXTT2=
EXTT3=
EXTT4=
EXTT5=
EXTT6=
EXTT7=
EXTT8=
EXTT9=
EXTT10=
EXTT11=
EXTT12=
EXTT13=
EXTT14=
EXTT15=
EXTT16=
EXTT17=
EXTT18=
EXTT19=
PLAYORDER=
